
<svg xmlns="http://www.w3.org/2000/svg" version="1.1" xmlns:xlink="http://www.w3.org/1999/xlink" preserveAspectRatio="none" x="0px" y="0px" width="100px" height="100px" viewBox="0 0 100 100">
<defs>
<path id="Layer1_0_1_STROKES" stroke="red" stroke-width="2" stroke-linejoin="miter" stroke-linecap="butt" stroke-miterlimit="3" fill="none" d="
M 95.65 49.85
L 81.2 49.85 86.95 56.1
M 77.45 43.35
L 71.2 49.85 81.2 49.85 87.45 43.35
M 50.15 4.35
L 50.15 18.8 56.15 12.3
M 44.15 22.55
L 50.15 28.8 50.15 18.8 44.15 12.55
M 56.15 22.3
L 50.15 28.8 50.15 37.85 58.2 29.8 58.2 42 58.7 41.5 66.95 33.25 66.95 24.65
M 35.5 26.3
L 35.5 35.3 41.5 41.3 41.5 29.9 50.15 38.55 50.15 37.85
M 41.5 41.3
L 42 41.8 50.05 49.85 50.15 49.85 50.15 38.55
M 80.2 28
L 72.2 28 66.95 33.25 66.95 33.5 74.95 33.5
M 72.2 28
L 72.2 19.15
M 58.2 42
L 50.35 49.85 61.45 49.85 62.15 49.85 70.5 41.5 58.7 41.5
M 35.5 35.3
L 27.4 35.3
M 28 18.8
L 28 27.8 35.5 35.3
M 19.9 27.8
L 28 27.8 17.8 17.6
M 26.2 64.65
L 35.55 64.65 41.55 58.65 42.05 58.15 30.25 58.15 38.55 49.85 37.85 49.85 28.8 49.85 22.3 56.6
M 35.55 73.65
L 35.55 64.65 28.05 72.15 28.05 81.15
M 4.35 49.85
L 18.8 49.85 12.3 42.6
M 28.8 49.85
L 18.8 49.85 12.3 56.6
M 17.85 82.35
L 28.05 72.15 18.7 72.15
M 72.15 81.05
L 72.15 71.95 64.65 64.45 64.65 73.55
M 76.95 56.1
L 71.2 49.85 62.15 49.85
M 61.45 49.85
L 70.05 58.45 58.65 58.45 64.65 64.45 73.9 64.45
M 58.65 58.45
L 58.15 57.95 58.15 70.15 50.15 62.15 50.15 71.2 56.65 77.45
M 50.2 50
L 50.15 49.95 50.15 50.05 50.2 50 50.35 49.85 50.15 49.85 50.15 49.95 50.05 49.85 38.55 49.85
M 42.05 58.15
L 50.15 50.05 50.15 61.45 50.15 62.15
M 41.55 58.65
L 41.55 70.05 50.15 61.45
M 58.15 57.95
L 50.2 50
M 50.15 71.2
L 50.15 81.2 56.65 87.45
M 50.15 95.65
L 50.15 81.2 44.65 86.95
M 50.15 71.2
L 44.65 76.95
M 22.3 42.6
L 28.8 49.85
M 37.85 49.85
L 29.8 41.8 42 41.8
M 81.4 71.95
L 72.15 71.95 82.35 82.15
M 82.4 17.8
L 72.2 28"/>
</defs>

<g transform="matrix( 1, 0, 0, 1, 0,0) ">
<use xlink:href="#Layer1_0_1_STROKES"/>
</g>
</svg>
