
<svg xmlns="http://www.w3.org/2000/svg" version="1.1" xmlns:xlink="http://www.w3.org/1999/xlink" preserveAspectRatio="none" x="0px" y="0px" width="100px" height="100px" viewBox="0 0 100 100">
<defs>
<g id="Layer1_0_FILL">
<path fill="red" stroke="none" d="
M 88.25 45.05
L 86.8 43.65 80.85 49.85 73.55 49.85 81.7 40.8 80.2 39.45 70.85 49.85 64.35 49.85 74.2 35.05 74.2 35.05
Q 74.2421875 35.026171875 74.25 35 74.3263671875 34.8765625 74.35 34.75
L 77.85 29.55 77.85 29.55
Q 77.894921875 29.522265625 77.9 29.5
L 86.75 14.95 71.8 24.25 71.75 24.3 66.55 27.5 66.5 27.55 51.25 37.05 51.25 30.15 59.15 21.55 57.7 20.2 51.25 27.25 51.25 20.15 56.95 13.95 55.5 12.6 51.25 17.25 51.25 5.35 49.25 5.35 49.25 17.3 44.95 12.85 43.5 14.25 49.25 20.2 49.25 27.55 41.1 20.2 39.75 21.7 49.25 30.25 49.25 37.65 36.15 28.8 36.15 28.8 36.1 28.8
Q 36.02578125 28.75390625 35.95 28.7
L 28.8 23.8
Q 28.746484375 23.773828125 28.65 23.7
L 13.9 13.35 15.75 17.1 15.8 17.1 23.35 29.25 23.4 29.3 23.4 29.3 23.4 29.35 27.95 36.65
Q 27.99453125 36.7361328125 28.05 36.8
L 36.15 49.85 29.35 49.85 18.95 37.55 17.45 38.85 26.75 49.85 19.35 49.85 13.15 42.9 11.65 44.25 16.65 49.85 4.45 49.85 4.45 51.85 16.55 51.85 11.65 56.9 13.1 58.3 19.3 51.85 26.75 51.85 17.05 63.15 18.55 64.45 29.35 51.85 36.8 51.85 28.2 65.1
Q 28.146875 65.184765625 28.1 65.25
L 23.4 72.45
Q 23.36328125 72.5220703125 23.3 72.55
L 14.35 86.65 17.25 85 17.2 84.95 28.7 77.7
Q 28.766015625 77.6568359375 28.8 77.6
L 36 73.05
Q 36.0890625 73.00390625 36.15 72.95
L 36.25 72.85 49.25 64.55 49.25 71.75 41.25 79.2 42.6 80.65 49.25 74.45 49.25 81.8 44 87.25 45.45 88.65 49.25 84.7 49.25 96.65 51.25 96.65 51.25 84.55 56.05 89.15 57.45 87.7 51.25 81.75 51.25 74.4 58.45 80.8 59.8 79.3 51.25 71.7 51.25 65.3 64.15 73.6 64.2 73.65 71.65 78.45 71.7 78.5 83.95 86.35 86.1 87.3 84.8 85.1 84.8 85.05 84.25 84.15 84.2 84.1 77.05 72.5
Q 77.0201171875 72.4794921875 77 72.45
L 77 72.4 76.95 72.4 72.45 65.1
Q 72.4119140625 65.02421875 72.35 64.9
L 64.25 51.85 70.85 51.85 79.9 62.15 81.4 60.85 73.5 51.85 80.85 51.85 86.3 57.75 87.75 56.4 83.55 51.85 95.75 51.85 95.75 49.85 83.65 49.85 88.25 45.05
M 51.25 48.65
L 51.25 39.4 66.05 30.2 66.05 33.85 51.25 48.65
M 49.25 40.05
L 49.25 48.55 36.6 35.9 36.6 31.5 49.25 40.05
M 71.3 26.95
L 71.3 28.55 68.05 31.8 68.05 28.95 71.3 26.95
M 72.7 30
L 75.2 30 72.85 33.5 69.2 33.5 72.7 30
M 73.3 26.6
L 73.3 25.7 75.65 24.2 73.3 26.6
M 76.5 28
L 74.7 28 80.1 22.6 76.5 28
M 67.2 35.5
L 71.55 35.5 61.95 49.85 52.85 49.85 67.2 35.5
M 34.6 30.15
L 34.6 33.9 29.1 28.4 29.1 26.4 34.6 30.15
M 26.05 29.8
L 27.7 29.8 33.2 35.3 29.45 35.3 26.05 29.8
M 27.1 25.1
L 27.1 26.4 23.05 22.35 27.1 25.1
M 24.8 27.8
L 23.3 25.4 25.7 27.8 24.8 27.8
M 30.7 37.3
L 35.2 37.3 47.75 49.85 38.75 49.85
Q 38.6953125 49.8478515625 38.65 49.85
L 38.5 49.85 30.7 37.3
M 26 72.15
L 29.55 66.65 33.25 66.65 27.75 72.15 26 72.15
M 24.65 74.15
L 25.75 74.15 22.3 77.55 24.65 74.15
M 34.65 68.05
L 34.65 71.55 29.15 75 29.15 73.55 34.65 68.05
M 36.65 70.25
L 36.65 66.05 49.25 53.45 49.25 62.2 36.65 70.25
M 35.25 64.65
L 30.9 64.65 39.2 51.85 48.05 51.85 35.25 64.65
M 27.15 76.3
L 25.05 77.6 27.15 75.55 27.15 76.3
M 65.75 72.25
L 65.75 67.85 71.25 73.35 71.25 75.8 65.75 72.25
M 63.75 65.85
L 63.75 70.95 51.25 62.9 51.25 53.35 63.75 65.85
M 69.7 64.45
L 65.15 64.45 52.55 51.85 61.9 51.85 69.7 64.45
M 70.95 66.45
L 74.35 71.95 72.65 71.95 67.15 66.45 70.95 66.45
M 74.65 73.95
L 75.6 73.95 77.1 76.4 74.65 73.95
M 78.1 80.2
L 73.25 77.1 73.25 75.35 78.1 80.2 Z"/>
</g>
</defs>

<g transform="matrix( 1, 0, 0, 1, 0,0) ">
<use xlink:href="#Layer1_0_FILL"/>
</g>
</svg>
