
<svg xmlns="http://www.w3.org/2000/svg" version="1.1" xmlns:xlink="http://www.w3.org/1999/xlink" preserveAspectRatio="none" x="0px" y="0px" width="100px" height="100px" viewBox="0 0 100 100">
<defs>
<g id="Layer1_0_FILL">
<path fill="red" stroke="none" d="
M 57.55 81.3
L 50.9 76.05
Q 50.6 75.85 50.3 75.8
L 50.3 84.65 50.3 75.8
Q 50.1 75.8 50 75.8 49.45 75.85 49.2 76.3 48.95 76.55 48.9 76.9
L 48.9 76.5 42.75 81.6 44.35 83.5 48.9 79.65 48.9 82.95 45.05 86.95 46.85 88.65 48.9 86.45 48.9 89.25 50 89.25
Q 48.65 89.3 47.75 90.25 47.45 90.55 47.25 90.85 46.75 91.65 46.75 92.6 46.75 94 47.75 95 48.45 95.7 49.5 95.9 49.8 95.95 50.1 95.95 50.25 95.95 50.35 95.95 51.6 95.9 52.5 95 53.45 94 53.45 92.6 53.45 91.5 52.85 90.6 52.65 90.4 52.5 90.25 51.55 89.3 50.35 89.25
L 51.35 89.25 51.35 86.85 53.4 88.7 55.05 86.9 51.35 83.5 51.35 79.6 56 83.25 57.55 81.3
M 89.8 27.05
Q 89.7 26.8 89.45 26.6 88.8 25.8 87.8 25.5 86.45 25.1 85.3 25.85 84.45 26.35 83.95 27.1 83.75 27.5 83.7 27.85 83.35 29.15 83.95 30.3
L 83.45 29.4 80.95 30.8 81.8 27.85 79.5 27.2 78 32.55 75.05 34.2 76.1 28.35 73.75 27.9 72.4 35.75 68.8 37.85 69.65 28.95 67.2 28.7 66.2 39.3 62.45 41.5 66 23.6 51.35 35.15 51.35 30.7 60.15 24.65 58.75 22.6 51.35 27.75 51.35 23.65 57.55 18.8 56 16.85 51.35 20.55 51.35 16.6 55.05 13.2 53.4 11.35 51.35 13.25 51.35 10.8 50.35 10.8
Q 51.55 10.75 52.5 9.85 52.65 9.65 52.85 9.45 53.45 8.55 53.45 7.45 53.45 6.05 52.5 5.1 51.6 4.2 50.35 4.1 50.25 4.1 50.1 4.1 49.8 4.1 49.5 4.2 48.45 4.35 47.75 5.1 46.75 6.05 46.75 7.45 46.75 8.45 47.25 9.25 47.45 9.55 47.75 9.85 48.65 10.75 50 10.8
L 48.9 10.8 48.9 13.6 46.85 11.4 45.05 13.15 48.9 17.2 48.9 20.45 44.35 16.65 42.75 18.55 48.9 23.65 48.9 27.75 41.65 22.55 40.25 24.55 48.9 30.7 48.9 35.05 33.8 21.85 37.6 41.45 33.8 39.3 32.75 28.7 30.35 28.95 31.2 37.75 27.65 35.75 26.3 27.9 23.95 28.35 24.9 34.2 22.05 32.55 20.5 27.2 18.15 27.85 19 30.8 16.6 29.4 16.05 30.4
Q 16.65 29.2 16.3 27.85 16.2 27.5 16.05 27.1 15.55 26.35 14.7 25.85 13.55 25.1 12.2 25.5 11.15 25.8 10.55 26.6 10.3 26.8 10.2 27.05 10.15 27.2 10.05 27.25 9.5 28.4 9.9 29.6 10.25 30.95 11.4 31.7 12.4 32.25 13.5 32.1 13.7 32.05 13.95 32 15.2 31.65 15.9 30.65
L 15.35 31.5 17.5 32.7 14.9 33.5 15.6 35.85 20.35 34.35 23.8 36.35 18.35 38.55 19.25 40.8 26.45 37.9 30.05 39.95 21.95 43.75 22.95 45.95 32.6 41.45 36.4 43.6 23.5 48.65 19.45 50.7 36.35 56.6 32.65 58.7 23.05 54.25 22 56.45 30.1 60.15 26.5 62.25 19 59.5 18.15 61.75 23.75 63.8 20.9 65.45 15.55 64.15 14.95 66.5 17.9 67.25 15.4 68.65 15.95 69.45
Q 15.2 68.45 14 68.1 13.6 68 13.3 67.95 12.3 67.95 11.45 68.45 10.3 69.1 9.95 70.45 9.65 71.5 10 72.45 10.15 72.75 10.25 73 10.3 73.15 10.35 73.2 11.05 74.3 12.3 74.6 13.65 74.95 14.8 74.3 15.8 73.75 16.3 72.7 16.35 72.45 16.4 72.2 16.7 71 16.15 69.85
L 16.65 70.7 18.85 69.5 18.2 72.2 20.6 72.75 21.7 67.85 25.1 65.9 24.25 71.8 26.7 72.1 27.8 64.35 31.3 62.3 30.6 71.25 33 71.45 33.95 60.8 37.7 58.65 35.8 75.95 35.95 76.1 48.9 65.1 48.9 69.4 40.25 75.55 41.65 77.6 50.1 71.55 50.3 71.65 50.3 70.25 50.3 71.65 58.75 77.5 60.15 75.5 51.35 69.4 51.35 65 64.7 75.8 64.85 75.95 65.05 75.75 65.1 75.75 65.1 74.4 64.6 72.55 62.4 58.65 66.2 60.8 67.1 71.45 69.55 71.25 68.8 62.3 72.35 64.3 72.3 63.9
Q 72.45 64.3 72.8 64.6
L 78.35 67.85 78.4 67.85 79.55 72.75 81.95 72.2 81.3 69.55 83.4 70.75 84 69.75
Q 83.35 70.9 83.7 72.2 83.7 72.4 83.85 72.7 84.3 73.7 85.3 74.25 86.45 74.95 87.8 74.6 89 74.25 89.7 73.2 89.75 73.15 89.8 73 89.9 72.75 90.05 72.4 90.4 71.5 90.1 70.45 89.75 69.1 88.6 68.4 87.75 67.9 86.75 67.95 86.45 67.95 86 68.1 84.8 68.45 84.15 69.55
L 84.6 68.65 82.2 67.25 85.1 66.5 84.5 64.15 79.15 65.45 76.2 63.75 81.9 61.7 81.05 59.45 73.55 62.2 70 60.15 78.1 56.4 77.1 54.2 67.45 58.7 63.7 56.6 79.45 51 79.7 50.85 79.25 49.7 63.55 43.7 67.45 41.45 77.15 45.95 78.15 43.75 70 39.95 73.55 37.9 80.85 40.8 81.75 38.55 76.2 36.35 79.65 34.35 84.45 35.85 85.15 33.5 82.5 32.7 84.6 31.5 84 30.4
Q 84.75 31.65 86.1 32 86.25 32.05 86.55 32.1 87.65 32.25 88.65 31.7 89.8 30.95 90.15 29.6 90.45 28.4 89.9 27.25 89.85 27.2 89.8 27.05
M 51.35 47.9
L 51.35 38.25 62.35 29.45 59.75 43.05 51.35 47.9
M 48.9 38.2
L 48.9 48 40.3 43 37.6 28.45 48.9 38.2
M 49.65 49.45
L 50.35 49.45 50.7 50.05 50.4 50.6 49.65 50.6 49.3 50 49.65 49.45
M 38.3 70.95
L 40.45 57.05 48.9 52.15 48.9 61.9 38.3 70.95
M 39.15 54.95
L 26 50.3 39.1 45.2 47.6 50.05 39.15 54.95
M 72.2 63.45
Q 72.208984375 63.1373046875 72.45 62.8 72.5814453125 62.580859375 72.75 62.45 72.5875 62.58125 72.5 62.8 72.45 62.85 72.4 62.9 72.35 62.95 72.35 63.05 72.209375 63.284375 72.2 63.45
M 74.1 50.25
L 60.95 54.95 52.5 50.05 60.95 45.2 74.1 50.25
M 51.35 52.25
L 59.65 57.05 61.75 70.25 51.35 61.9 51.35 52.25 Z"/>
</g>

<path id="Layer1_0_1_STROKES" stroke="#FFFFFF" stroke-width="2" stroke-linejoin="miter" stroke-linecap="butt" stroke-miterlimit="3" fill="none" d="
M 50.3 71.65
L 50.3 75.8 50.3 84.65
M 50.3 70.25
L 50.3 71.65"/>
</defs>

<g transform="matrix( 1, 0, 0, 1, 0,0) ">
<use xlink:href="#Layer1_0_FILL"/>

<use xlink:href="#Layer1_0_1_STROKES"/>
</g>
</svg>
