<svg xmlns="http://www.w3.org/2000/svg" xmlns:xlink="http://www.w3.org/1999/xlink" width="30px" height="30px" viewBox="0 0 30 30" version="1.1">
<g id="surface1">
<path style=" stroke:none;fill-rule:nonzero;fill:rgb(100%,100%,100%);fill-opacity:1;" d="M 21.058594 4.585938 C 18.265625 4.566406 15.464844 4.457031 12.660156 4.523438 C 9.417969 4.605469 6.886719 4.800781 4.972656 7.394531 C 4.46875 8.632812 4.21875 10.074219 4.097656 11.582031 C 4.074219 11.980469 4.050781 12.386719 4.023438 12.808594 C 3.917969 15.367188 4.089844 18.007812 4.035156 20.101562 C 4.304688 21.476562 4.832031 22.714844 5.824219 23.65625 C 9.101562 26.78125 15.773438 25.808594 20.144531 25.636719 C 22.246094 24.871094 23.992188 24.238281 24.929688 21.839844 C 25.671875 19.953125 25.554688 17.546875 25.605469 15.523438 C 25.703125 11.359375 25.886719 5.613281 21.058594 4.585938 Z M 21.058594 4.585938 "/>
<path style=" stroke:none;fill-rule:nonzero;fill:fuchsia;fill-opacity:1;" d="M 19.777344 6.070312 C 25.363281 6.789062 23.722656 14.882812 23.570312 18.808594 C 23.480469 20.964844 23.097656 22.632812 20.871094 23.378906 C 17.941406 24.363281 13.628906 24.035156 10.644531 23.597656 C 8.648438 23.3125 7.082031 22.714844 6.53125 20.640625 C 5.65625 17.371094 5.902344 12.941406 6.28125 9.605469 C 6.292969 9.539062 6.3125 9.496094 6.339844 9.453125 C 6.390625 4.460938 16.871094 5.699219 19.777344 6.070312 Z M 19.777344 6.070312 "/>
<path style=" stroke:none;fill-rule:nonzero;fill:rgb(100%,100%,100%);fill-opacity:1;" d="M 22.097656 9.113281 C 22.105469 7.738281 20.394531 7.304688 19.472656 8.148438 C 19.226562 8.378906 19.109375 8.730469 19.09375 9.109375 C 19.183594 9.597656 19.476562 10.082031 19.859375 10.355469 C 20.75 10.984375 22.085938 10.148438 22.097656 9.113281 Z M 22.097656 9.113281 "/>
<path style=" stroke:none;fill-rule:nonzero;fill:rgb(100%,100%,100%);fill-opacity:1;" d="M 19.546875 11.789062 C 17.582031 8.808594 13.140625 8.515625 10.753906 11.15625 C 9.125 12.957031 9.007812 15.953125 10.234375 18.082031 C 10.304688 18.105469 10.367188 18.144531 10.425781 18.214844 C 12.414062 20.433594 15.84375 21.242188 18.304688 19.226562 C 20.503906 17.425781 21.148438 14.210938 19.546875 11.789062 Z M 19.546875 11.789062 "/>
<path style=" stroke:none;fill-rule:nonzero;fill:fuchsia;fill-opacity:1;" d="M 11.707031 15.875 C 12.402344 17.828125 14.875 19.382812 16.851562 18.175781 C 20.835938 15.734375 16.152344 9.109375 12.867188 12.046875 C 11.707031 12.734375 11.253906 14.589844 11.707031 15.875 Z M 11.707031 15.875 "/>
</g>
</svg>
