<svg xmlns="http://www.w3.org/2000/svg" xmlns:xlink="http://www.w3.org/1999/xlink" width="30px" height="30px" viewBox="0 0 30 30" version="1.1">
<g id="surface1">
<path style=" stroke:none;fill-rule:nonzero;fill:rgb(100%,100%,100%);fill-opacity:1;" d="M 15.15625 7.101562 C 10.894531 7.101562 7.445312 10.527344 7.445312 14.761719 C 7.445312 16.425781 7.992188 17.996094 8.921875 19.257812 L 7.945312 22.113281 L 10.917969 21.160156 C 12.132812 21.96875 13.609375 22.421875 15.179688 22.421875 C 19.4375 22.421875 22.910156 18.996094 22.910156 14.761719 C 22.886719 10.527344 19.414062 7.101562 15.15625 7.101562 Z M 19.675781 17.925781 C 19.484375 18.449219 18.558594 18.949219 18.152344 18.996094 C 17.746094 19.042969 17.746094 19.328125 15.441406 18.449219 C 13.15625 17.546875 11.703125 15.238281 11.585938 15.070312 C 11.46875 14.929688 10.660156 13.859375 10.660156 12.765625 C 10.660156 11.667969 11.230469 11.121094 11.441406 10.90625 C 11.65625 10.695312 11.894531 10.621094 12.039062 10.621094 C 12.179688 10.621094 12.347656 10.644531 12.464844 10.644531 C 12.609375 10.644531 12.777344 10.574219 12.964844 11.027344 C 13.15625 11.480469 13.609375 12.574219 13.65625 12.691406 C 13.703125 12.8125 13.75 12.929688 13.679688 13.074219 C 13.609375 13.214844 13.5625 13.3125 13.464844 13.453125 C 13.347656 13.574219 13.226562 13.738281 13.132812 13.835938 C 13.011719 13.953125 12.894531 14.070312 13.039062 14.285156 C 13.179688 14.5 13.632812 15.238281 14.296875 15.832031 C 15.15625 16.59375 15.890625 16.832031 16.105469 16.949219 C 16.320312 17.070312 16.464844 17.046875 16.582031 16.902344 C 16.726562 16.761719 17.152344 16.261719 17.296875 16.023438 C 17.4375 15.808594 17.605469 15.832031 17.796875 15.902344 C 18.007812 15.976562 19.105469 16.523438 19.339844 16.640625 C 19.554688 16.761719 19.722656 16.808594 19.769531 16.902344 C 19.839844 16.949219 19.839844 17.402344 19.675781 17.925781 Z M 19.675781 17.925781 "/>
<path style=" stroke:none;fill-rule:nonzero;fill:rgb(100%,100%,100%);fill-opacity:1;" d="M 22.457031 0.0117188 L 7.519531 0.0117188 C 3.378906 0.0117188 0 3.390625 0 7.53125 L 0 22.492188 C 0 26.609375 3.378906 29.988281 7.519531 29.988281 L 22.480469 29.988281 C 26.621094 29.988281 30 26.609375 30 22.46875 L 30 7.53125 C 29.976562 3.390625 26.597656 0.0117188 22.457031 0.0117188 Z M 15.15625 23.875 C 13.535156 23.875 12.039062 23.46875 10.707031 22.730469 L 5.613281 24.351562 L 7.28125 19.472656 C 6.445312 18.09375 5.972656 16.476562 5.972656 14.761719 C 5.972656 9.71875 10.085938 5.648438 15.15625 5.648438 C 20.222656 5.648438 24.335938 9.71875 24.335938 14.761719 C 24.335938 19.804688 20.222656 23.875 15.15625 23.875 Z M 15.15625 23.875 "/>
</g>
</svg>
